<?xml version="1.0" encoding="UTF-8"?>
<svg id="Lag_1" data-name="Lag 1" xmlns="http://www.w3.org/2000/svg" version="1.1" viewBox="0 0 1200 1200">
  <defs>
    <style>
      .cls-1 {
        fill: #fff;
        stroke-width: 0px;
      }
    </style>
  </defs>
  <path class="cls-1" d="M656.2,65.9c-15.5,0-28.1,12.6-28.1,28.1v449.8c0,15.5,12.6,28.1,28.1,28.1h449.7c15.5,0,28.1-12.6,28.1-28.1-.3-263.8-214-477.6-477.8-477.9h0ZM543.8,178.4c-263.9,0-477.9,213.9-477.9,477.8s214,477.9,477.9,477.9,477.8-213.9,477.8-477.9-12.6-28.1-28.1-28.1h-421.6V206.5c0-15.5-12.6-28.1-28.1-28.1h0ZM515.7,235.5v420.7c0,15.5,12.6,28.1,28.1,28.1h420.7c-15.1,221.3-198.9,393.2-420.7,393.5-232.9,0-421.7-188.6-421.8-421.5,0-222,172.1-406.1,393.7-420.8h0Z"/>
</svg>